<svg width="1920" height="1080" viewBox="200 600 1920 1080" fill="none" xmlns="http://www.w3.org/2000/svg">
<rect width="1920" height="1080" fill="#FBF2DB"/>
<path d="M102.581 476.509H123.416C136.617 476.509 145.074 483.341 145.074 494.935C145.074 506.53 136.824 513.362 123.416 513.362H115.989V531.374H102.581V476.509ZM102.581 547.731H126.095C138.266 547.731 144.867 553.114 144.867 561.809C144.867 567.812 141.773 571.54 134.348 573.403V574.232C143.631 576.303 146.518 581.064 146.518 587.069C146.518 596.386 140.124 602.598 127.128 602.598H102.581V547.733V547.731ZM130.428 569.677V558.705H115.781V569.677H130.428ZM132.079 591.624V580.237H115.784V591.624H132.079ZM130.635 501.563V488.31H115.989V501.559H130.635V501.563ZM154.563 509.017V476.509H168.177V509.842C168.177 516.259 170.446 520.193 176.222 520.193C181.998 520.193 184.267 516.259 184.267 509.842V476.509H197.88V509.013C197.88 524.334 190.248 532.202 176.222 532.202C162.195 532.202 154.563 524.334 154.563 509.013V509.017ZM156.214 547.733H176.016C190.25 547.733 198.708 554.565 198.708 565.745C198.708 573.199 194.583 578.994 184.681 580.651V581.48C193.552 585.828 197.472 594.317 197.677 602.598H183.238C183.033 595.558 178.905 585 169.417 582.929V602.598H156.216V547.733H156.214ZM184.061 572.785V559.536H169.415V572.785H184.061ZM207.165 590.797H217.274V559.534H207.165V547.733H240.996V559.534H230.888V590.797H240.996V602.598H207.165V590.797ZM210.052 476.509H229.855C244.089 476.509 252.546 483.341 252.546 494.521C252.546 501.975 248.421 507.77 239.963 509.427V510.256C247.39 514.604 251.308 523.093 251.516 531.374H237.076C236.871 524.334 232.744 513.776 223.255 511.705V531.374H210.054V476.509H210.052ZM237.9 501.561V488.31H223.253V501.559H237.9V501.561ZM248.626 575.06C248.626 558.705 256.671 546.282 273.792 546.282C287.613 546.282 296.071 554.357 297.309 566.78H283.075C282.457 561.19 279.156 558.291 273.792 558.291C265.747 558.291 262.24 565.331 262.24 575.06C262.24 584.79 265.747 592.038 273.792 592.038C279.774 592.038 283.075 588.726 283.693 582.929H297.514C296.484 595.558 288.231 604.047 273.792 604.047C256.671 604.047 248.626 591.832 248.626 575.06ZM263.273 476.509H284.108C297.309 476.509 305.767 483.341 305.767 494.935C305.767 506.53 297.517 513.362 284.108 513.362H276.681V531.374H263.273V476.509ZM291.328 501.561V488.31H276.681V501.559H291.328V501.561ZM306.8 602.596V547.731H320.001V571.954H320.619C322.062 569.263 324.126 566.365 328.869 559.946L337.945 547.731H354.653L333.407 574.852L355.273 602.596H337.945L328.869 590.173C324.124 583.755 322.062 580.855 320.619 578.164H320.001V602.594H306.8V602.596ZM315.255 476.509H328.869V519.365H354.242L348.261 531.374H315.255V476.509ZM380.851 604.044C393.021 604.044 401.687 596.798 401.687 586.238C401.687 575.678 394.88 571.952 386.835 569.675L378.584 567.398C373.839 566.155 371.778 565.327 371.778 562.221C371.778 559.323 374.665 557.458 378.379 557.458C382.712 557.458 386.217 559.529 386.837 563.256H400.45C399.832 551.661 389.929 546.278 378.997 546.278C366.827 546.278 358.162 552.904 358.162 563.047C358.162 573.191 365.382 577.333 372.808 579.402L381.471 581.888C386.217 583.337 388.073 584.579 388.073 587.477C388.073 590.583 384.979 592.86 380.853 592.86C374.872 592.86 371.57 589.34 371.365 584.994H357.751C357.957 595.345 365.796 604.04 380.855 604.04L380.851 604.044ZM361.049 476.509H399.005V488.518H374.252V498.249H394.262L388.28 509.844H374.254V519.367H399.214V531.376H361.053V476.509H361.049Z" fill="#791093"/>
<path d="M1761.46 605.602C1735.78 605.602 1718.42 594.389 1713.9 572.144L1734.34 566.9C1737.41 580.102 1747.36 589.144 1761.65 589.144C1774.67 589.144 1785.52 582.815 1785.52 570.517C1785.52 561.474 1779.01 554.421 1767.79 551.347L1756.76 548.453C1732.71 542.304 1718.42 530.368 1718.42 510.113C1718.42 489.676 1736.51 473.581 1762.19 473.581C1785.52 473.581 1802.7 485.517 1807.76 507.4L1787.87 512.644C1784.61 500.708 1776.66 489.857 1762.01 489.857C1749.35 489.857 1739.76 497.634 1739.76 508.847C1739.76 519.517 1747.18 525.123 1759.11 528.198L1770.15 530.91C1794.92 537.24 1807.22 549.357 1807.22 569.07C1807.22 592.942 1786.06 605.602 1761.46 605.602Z" fill="#C137AC"/>
<path d="M1692.56 602.889H1608.65V476.294H1689.49V493.655H1629.99V530.187H1684.97V547.187H1629.99V585.347H1692.56V602.889Z" fill="#C137AC"/>
<path d="M1518.7 605.6C1481.8 605.6 1454.5 576.483 1454.5 539.59C1454.5 502.696 1482.35 473.398 1519.42 473.398C1549.62 473.398 1571.69 490.579 1579.46 514.632L1558.67 520.419C1552.34 504.505 1538.95 492.749 1519.42 492.749C1493.56 492.749 1476.74 513.728 1476.74 539.59C1476.74 565.994 1493.56 586.611 1519.42 586.611C1539.13 586.611 1555.77 575.941 1558.3 557.675H1520.14V540.132H1580.37C1582.18 580.1 1556.32 605.6 1518.7 605.6Z" fill="#C137AC"/>
<path d="M1440.87 602.889H1417.91L1405.43 568.889H1351.53L1339.05 602.889H1316.27L1365.82 476.294H1391.32L1440.87 602.889ZM1378.48 495.464L1357.68 552.07H1399.28L1378.48 495.464Z" fill="#C137AC"/>
<path d="M1238.25 605.6C1201.36 605.6 1174.05 576.483 1174.05 539.59C1174.05 502.696 1201.9 473.398 1238.97 473.398C1269.17 473.398 1291.24 490.579 1299.02 514.632L1278.22 520.419C1271.89 504.505 1258.5 492.749 1238.97 492.749C1213.11 492.749 1196.29 513.728 1196.29 539.59C1196.29 565.994 1213.11 586.611 1238.97 586.611C1258.69 586.611 1275.32 575.941 1277.86 557.675H1239.7V540.132H1299.92C1301.73 580.1 1275.87 605.6 1238.25 605.6Z" fill="#C137AC"/>
<path d="M1125.71 602.889H1104.37V494.017H1067.66V476.294H1162.24V494.017H1125.71V602.889Z" fill="#C137AC"/>
<path d="M983.267 602.889H961.927V476.294H1004.25C1031.92 476.294 1051.81 490.762 1051.81 514.996C1051.81 537.964 1031.55 552.251 1011.3 552.974H1009.31L1056.51 602.889H1027.76L983.267 552.974V602.889ZM983.267 493.655V537.421H1003.52C1016.91 537.421 1029.75 530.368 1029.75 515.538C1029.75 499.804 1016.91 493.655 1003.52 493.655H983.267Z" fill="#C137AC"/>
<path d="M868.468 605.6C831.393 605.6 803.361 576.483 803.361 539.59C803.361 502.696 831.393 473.398 868.468 473.398C905.723 473.398 933.755 502.696 933.755 539.59C933.755 576.483 905.723 605.6 868.468 605.6ZM868.468 586.068C894.51 586.068 910.968 565.632 910.968 539.59C910.968 513.728 894.51 492.749 868.468 492.749C842.606 492.749 825.968 513.728 825.968 539.59C825.968 565.632 842.606 586.068 868.468 586.068Z" fill="#C137AC"/>
<path d="M664.49 602.889H643.511V476.294H674.618L709.341 577.389L744.064 476.294H775.171V602.889H754.192L755.096 502.879L721.277 598.73H697.586L663.586 502.879L664.49 602.889Z" fill="#C137AC"/>
<path d="M441.967 513.628L478.803 473.398L515.427 513.628L552.157 490.242L588.887 513.628V602.887H441.967V513.628Z" fill="#EEB8FB"/>
<path d="M424.535 530.672L606.413 558.981V602.887H424.535V530.672Z" fill="#CE52EC"/>
<path d="M606.317 543.123L471.848 559.117V602.887H606.317V543.123Z" fill="#791093"/>
<rect x="547.798" y="602.887" width="29.882" height="21.1664" transform="rotate(-90 547.798 602.887)" fill="#FFFBF6"/>
</svg>
