<svg width="136" height="36" viewBox="0 0 136 36" fill="none" xmlns="http://www.w3.org/2000/svg">
<path d="M100.141 2.57892C100.141 1.15507 101.324 0.000106812 102.784 0.000106812H133.27C134.73 0.000106812 135.914 1.15507 135.914 2.57892V33.4213C135.914 34.8456 134.73 36.0001 133.27 36.0001H102.784C101.324 36.0001 100.141 34.8456 100.141 33.4213V2.57892Z" fill="#151515"/>
<path fill-rule="evenodd" clip-rule="evenodd" d="M0 30.1554H14.9291V25.2541H5.40267V6.55446H0V30.1554Z" fill="#151515"/>
<path fill-rule="evenodd" clip-rule="evenodd" d="M22.4877 30.1554V13.8998H17.0846V30.1554H22.4877ZM19.7862 11.6803C21.6704 11.6803 22.8431 10.4321 22.8431 8.87111C22.808 7.27649 21.6704 6.06333 19.8221 6.06333C17.9736 6.06333 16.7651 7.27649 16.7651 8.87111C16.7651 10.4321 17.9377 11.6803 19.7509 11.6803H19.7862Z" fill="#151515"/>
<path fill-rule="evenodd" clip-rule="evenodd" d="M24.9961 30.1554H30.3993V21.0773C30.3993 20.5915 30.4344 20.1061 30.5773 19.7588C30.9677 18.7886 31.8567 17.7832 33.3494 17.7832C35.3047 17.7832 36.0869 19.2744 36.0869 21.4583V30.1554H41.4895V20.8344C41.4895 15.8413 38.8237 13.5179 35.2688 13.5179C32.3542 13.5179 31.0743 15.1472 30.3633 16.2569H30.3994V13.8998H24.9962C25.0671 15.4252 24.9961 30.1554 24.9961 30.1554Z" fill="#151515"/>
<path fill-rule="evenodd" clip-rule="evenodd" d="M49.1119 6.55446H43.7085V30.1554H49.1119V24.8852L50.4622 23.1852L54.6924 30.1554H61.3393L54.2304 20.0647L60.4509 13.1994H53.9462C53.9462 13.1994 49.503 19.3418 49.1119 20.07V6.55446Z" fill="#151515"/>
<path fill-rule="evenodd" clip-rule="evenodd" d="M75.7888 23.3748C75.8598 22.9573 75.9666 22.1564 75.9666 21.2511C75.9666 17.0488 73.8335 12.783 68.2175 12.783C62.21 12.783 59.4375 17.5341 59.4375 21.8432C59.4375 27.1731 62.8144 30.5018 68.715 30.5018C71.0612 30.5018 73.2291 30.1555 75.0067 29.4272L74.2955 25.8589C72.8383 26.3423 71.3454 26.5838 69.4971 26.5838C66.9734 26.5838 64.7697 25.5481 64.5917 23.3402L75.7888 23.3739V23.3748ZM64.5565 19.7195C64.6986 18.3322 65.6228 16.2859 67.9333 16.2859C70.3854 16.2859 70.9545 18.4712 70.9545 19.7195H64.5565Z" fill="#151515"/>
<path fill-rule="evenodd" clip-rule="evenodd" d="M89.3039 6.55446V14.7243H89.2329C88.4508 13.5809 86.8153 12.818 84.6476 12.818C80.4884 12.818 76.8273 16.1467 76.8626 21.833C76.8626 27.1042 80.1685 30.5368 84.2918 30.5368C86.5311 30.5368 88.6638 29.5656 89.7302 27.693H89.8371L90.0503 30.1554H94.8494C94.7782 29.011 94.7066 27.0344 94.7066 25.093V6.55446H89.3039ZM89.3039 22.631C89.3039 23.0467 89.2683 23.4632 89.197 23.8096C88.8775 25.3008 87.5975 26.3408 86.0339 26.3408C83.7943 26.3408 82.3369 24.5379 82.3369 21.6945C82.3369 19.0247 83.5813 16.875 86.0691 16.875C87.7396 16.875 88.9128 18.0189 89.2329 19.4404C89.3039 19.753 89.3039 20.0999 89.3039 20.4116V22.631Z" fill="#151515"/>
<path fill-rule="evenodd" clip-rule="evenodd" d="M110.984 30.136V13.88H105.581V30.136H110.984ZM108.283 11.6605C110.167 11.6605 111.34 10.4123 111.34 8.85226C111.305 7.25716 110.167 6.04352 108.318 6.04352C106.47 6.04352 105.262 7.25716 105.262 8.85226C105.262 10.4123 106.434 11.6605 108.247 11.6605H108.283Z" fill="white"/>
<path fill-rule="evenodd" clip-rule="evenodd" d="M113.974 30.136H119.377V21.058C119.377 20.5721 119.412 20.0868 119.555 19.7395C119.946 18.7688 120.835 17.7634 122.327 17.7634C124.283 17.7634 125.065 19.2541 125.065 21.4394V30.136H130.467V20.8151C130.467 15.8219 127.802 13.4986 124.247 13.4986C121.332 13.4986 120.052 15.1278 119.341 16.2376H119.377V13.88H113.974C114.045 15.4054 113.974 30.136 113.974 30.136Z" fill="white"/>
</svg>
