<svg width="1920" height="1080" viewBox="0 0 1920 1080" fill="none" xmlns="http://www.w3.org/2000/svg">
<rect width="1920" height="1080" fill="#FBF2DB"/>
<path d="M1718.36 780.17C1688.22 780.17 1667.85 767.013 1662.55 740.911L1686.53 734.757C1690.13 750.248 1701.81 760.859 1718.57 760.859C1733.85 760.859 1746.58 753.431 1746.58 739.001C1746.58 728.39 1738.94 720.114 1725.79 716.507L1712.84 713.111C1684.62 705.896 1667.85 691.89 1667.85 668.122C1667.85 644.142 1689.07 625.255 1719.21 625.255C1746.58 625.255 1766.74 639.261 1772.68 664.939L1749.34 671.093C1745.52 657.087 1736.18 644.354 1718.99 644.354C1704.14 644.354 1692.89 653.48 1692.89 666.637C1692.89 679.157 1701.59 685.736 1715.6 689.343L1728.54 692.527C1757.62 699.954 1772.05 714.172 1772.05 737.303C1772.05 765.315 1747.22 780.17 1718.36 780.17Z" fill="#C137AC"/>
<path d="M1637.5 776.987H1539.04V628.439H1633.89V648.811H1564.08V691.678H1628.59V711.626H1564.08V756.403H1637.5V776.987Z" fill="#C137AC"/>
<path d="M1433.49 780.168C1390.2 780.168 1358.16 746.002 1358.16 702.71C1358.16 659.419 1390.84 625.041 1434.34 625.041C1469.78 625.041 1495.67 645.201 1504.79 673.425L1480.39 680.216C1472.96 661.541 1457.26 647.747 1434.34 647.747C1403.99 647.747 1384.26 672.364 1384.26 702.71C1384.26 733.693 1403.99 757.886 1434.34 757.886C1457.47 757.886 1477 745.365 1479.97 723.932H1435.19V703.347H1505.86C1507.98 750.246 1477.63 780.168 1433.49 780.168Z" fill="#C137AC"/>
<path d="M1342.17 776.987H1315.22L1300.57 737.091H1237.34L1222.69 776.987H1195.95L1254.1 628.439H1284.02L1342.17 776.987ZM1268.96 650.933L1244.55 717.355H1293.36L1268.96 650.933Z" fill="#C137AC"/>
<path d="M1104.41 780.168C1061.12 780.168 1029.08 746.002 1029.08 702.71C1029.08 659.419 1061.76 625.041 1105.26 625.041C1140.7 625.041 1166.59 645.201 1175.71 673.425L1151.31 680.216C1143.88 661.541 1128.18 647.747 1105.26 647.747C1074.91 647.747 1055.18 672.364 1055.18 702.71C1055.18 733.693 1074.91 757.886 1105.26 757.886C1128.39 757.886 1147.91 745.365 1150.89 723.932H1106.11V703.347H1176.78C1178.9 750.246 1148.55 780.168 1104.41 780.168Z" fill="#C137AC"/>
<path d="M972.35 776.987H947.309V649.235H904.229V628.439H1015.22V649.235H972.35V776.987Z" fill="#C137AC"/>
<path d="M805.212 776.987H780.171V628.439H829.829C862.297 628.439 885.64 645.416 885.64 673.852C885.64 700.803 861.873 717.568 838.105 718.417H835.77L891.158 776.987H857.416L805.212 718.417V776.987ZM805.212 648.811V700.166H828.98C844.683 700.166 859.75 691.89 859.75 674.489C859.75 656.026 844.683 648.811 828.98 648.811H805.212Z" fill="#C137AC"/>
<path d="M670.504 780.168C627 780.168 594.107 746.002 594.107 702.71C594.107 659.419 627 625.041 670.504 625.041C714.219 625.041 747.112 659.419 747.112 702.71C747.112 746.002 714.219 780.168 670.504 780.168ZM670.504 757.249C701.062 757.249 720.374 733.269 720.374 702.71C720.374 672.364 701.062 647.747 670.504 647.747C640.157 647.747 620.634 672.364 620.634 702.71C620.634 733.269 640.157 757.249 670.504 757.249Z" fill="#C137AC"/>
<path d="M431.155 776.987H406.538V628.439H443.039L483.783 747.065L524.528 628.439H561.029V776.987H536.412L537.473 659.634L497.789 772.106H469.99L430.094 659.634L431.155 776.987Z" fill="#C137AC"/>
<path d="M260.059 483.377C260.059 514.513 237.822 532.859 201.684 532.859H182.226V581.228H145.528V433.896H201.684C237.263 433.896 260.059 452.242 260.059 483.377ZM182.22 465.585V501.164H221.137V465.585H182.22ZM344.007 583.452C381.811 583.452 402.382 562.328 402.382 521.182V433.896H365.69V523.406C365.69 540.64 359.575 551.205 344.007 551.205C328.439 551.205 322.324 540.64 322.324 523.406V433.896H285.632V521.182C285.632 562.323 306.203 583.452 344.007 583.452ZM549.714 483.377C549.714 506.173 538.595 518.957 518.578 524.519C534.699 533.971 546.376 557.32 546.93 581.228H510.238C508.572 562.323 498.008 535.084 471.875 531.193V581.228H435.183V433.896H488.555C526.918 433.896 549.714 452.242 549.714 483.377ZM471.875 465.585V501.164H510.238V465.585H471.875ZM693.149 483.377C693.149 514.513 670.913 532.859 634.774 532.859H615.316V581.228H578.624V433.896H634.78C670.359 433.896 693.155 452.242 693.155 483.377H693.149ZM615.311 465.585V501.164H653.674V465.585H615.311ZM718.723 433.896H755.415V548.98H823.801L807.68 581.228H718.723V433.896ZM842.147 433.896H944.446V466.144H878.844V492.276H928.884L912.763 523.412H878.849V548.985H945.011V581.233H842.158V433.896H842.147ZM1093.44 539.533C1093.44 564.553 1076.21 581.233 1041.18 581.233H975.023V433.896H1038.41C1071.21 433.896 1089 448.351 1089 471.7C1089 489.493 1078.99 500.058 1063.43 503.948C1084.56 507.839 1093.45 522.294 1093.45 539.527L1093.44 539.533ZM1011.71 464.478V492.276H1050.08V464.478H1011.71ZM1011.71 521.741V550.651H1054.53V521.741H1011.71ZM1234.1 483.377C1234.1 506.173 1222.98 518.957 1202.97 524.519C1219.09 533.971 1230.76 557.32 1231.32 581.228H1194.63C1192.96 562.323 1182.4 535.084 1156.26 531.193V581.228H1119.57V433.896H1172.94C1211.31 433.896 1234.1 452.242 1234.1 483.377ZM1156.27 465.585V501.164H1194.63V465.585H1156.27ZM1255.23 549.539H1282.47V465.585H1255.23V433.896H1346.41V465.585H1319.16V549.539H1346.41V581.228H1255.23V549.539ZM1429.25 585.118C1468.17 585.118 1490.41 562.323 1493.19 528.409H1455.93C1454.27 543.977 1445.37 552.87 1429.25 552.87C1407.57 552.87 1398.11 534.525 1398.11 507.28C1398.11 480.035 1407.57 462.248 1429.25 462.248C1443.7 462.248 1452.6 470.029 1454.27 485.043H1492.63C1489.29 451.683 1466.5 430 1429.25 430C1383.1 430 1361.42 463.36 1361.42 507.28C1361.42 551.199 1383.1 585.118 1429.25 585.118ZM1602.15 581.228L1554.9 518.403V581.228H1518.21V433.896H1554.9V496.72L1602.15 433.896H1647.19L1589.92 506.726L1648.86 581.228H1602.15ZM1655.53 531.746H1692.22C1692.77 545.643 1701.67 553.983 1717.79 553.983C1728.91 553.983 1737.25 548.98 1737.25 540.64C1737.25 532.859 1732.25 529.522 1719.46 525.631L1696.11 518.957C1676.09 513.395 1656.63 502.277 1656.63 475.037C1656.63 447.798 1680.01 430.006 1712.81 430.006C1742.27 430.006 1768.97 444.461 1770.63 477.821H1733.94C1732.27 465.59 1722.82 461.141 1711.14 461.141C1701.14 461.141 1693.35 465.032 1693.35 472.818C1693.35 481.158 1698.91 483.383 1711.7 486.72L1733.93 492.835C1755.62 498.951 1773.96 509.515 1773.96 537.314C1773.96 565.112 1750.61 585.129 1717.81 585.129C1677.23 585.129 1656.1 561.781 1655.54 531.757L1655.53 531.746Z" fill="#791093"/>
<path d="M165.606 674.247L208.035 627.909L250.22 674.247L292.526 647.311L334.833 674.247V777.058H165.606L165.606 674.247Z" fill="#EEB8FB"/>
<path d="M145.528 693.879L355.021 726.485V777.058H145.528V693.879Z" fill="#CE52EC"/>
<path d="M354.91 708.22L200.025 726.643V777.058H354.91V708.22Z" fill="#791093"/>
<rect x="287.507" y="777.058" width="34.419" height="24.3801" transform="rotate(-90 287.507 777.058)" fill="#FFFBF6"/>
</svg>
