<svg width="183" height="60" viewBox="0 0 183 60" fill="none" xmlns="http://www.w3.org/2000/svg">
<g clip-path="url(#clip0_2119_869)">
<path d="M18.2863 20.9925H0V39.3609H18.2863V20.9925Z" fill="#00B67A"/>
<path d="M38.0964 20.9925H19.8101V39.3609H38.0964V20.9925Z" fill="#00B67A"/>
<path d="M57.9069 20.9925H39.6206V39.3609H57.9069V20.9925Z" fill="#00B67A"/>
<path d="M77.717 20.9925H59.4307V39.3609H77.717V20.9925Z" fill="#00B67A"/>
<path d="M97.527 20.9925H88.3838V39.3609H97.527V20.9925Z" fill="#DCDCE6"/>
<path d="M88.3839 20.9925H79.2407V39.3609H88.3839V20.9925Z" fill="#00B67A"/>
<path d="M9.14338 33.372L11.9244 32.6641L13.0864 36.2612L9.14338 33.372ZM15.5436 28.7226H10.6482L9.14338 24.0922L7.63857 28.7226H2.74316L6.7052 31.5926L5.20039 36.223L9.16243 33.3529L11.6006 31.5926L15.5436 28.7226Z" fill="#151515"/>
<path d="M28.9534 33.372L31.7345 32.6641L32.8964 36.2612L28.9534 33.372ZM35.3537 28.7226H30.4583L28.9534 24.0922L27.4486 28.7226H22.5532L26.5153 31.5926L25.0104 36.223L28.9725 33.3529L31.4107 31.5926L35.3537 28.7226Z" fill="#151515"/>
<path d="M48.7635 33.372L51.5446 32.6641L52.7065 36.2612L48.7635 33.372ZM55.1637 28.7226H50.2683L48.7635 24.0922L47.2587 28.7226H42.3633L46.3253 31.5926L44.8205 36.223L48.7826 33.3529L51.2207 31.5926L55.1637 28.7226Z" fill="#151515"/>
<path d="M68.5741 33.372L71.3551 32.6641L72.517 36.2612L68.5741 33.372ZM74.9743 28.7226H70.0789L68.5741 24.0922L67.0692 28.7226H62.1738L66.1359 31.5926L64.6311 36.223L68.5931 33.3529L71.0313 31.5926L74.9743 28.7226Z" fill="#151515"/>
<path d="M88.3841 33.372L91.1652 32.6641L92.3271 36.2612L88.3841 33.372ZM94.7843 28.7226H89.8889L88.3841 24.0922L86.8793 28.7226H81.9839L85.9459 31.5926L84.4411 36.223L88.4032 33.3529L90.8413 31.5926L94.7843 28.7226Z" fill="#151515"/>
</g>
<path fill-rule="evenodd" clip-rule="evenodd" d="M164.053 28.1038H165.531V29.516H164.053V28.1038ZM126.005 28.104H133.504V29.5162H130.556V37.4548H128.934V29.5162H125.998V28.104H126.005ZM133.184 30.684H134.57V31.9906H134.596C134.642 31.8058 134.727 31.6276 134.851 31.4561C134.975 31.2845 135.126 31.1195 135.302 30.9809C135.479 30.8358 135.675 30.7236 135.891 30.6312C136.107 30.5454 136.329 30.4992 136.551 30.4992C136.721 30.4992 136.845 30.5058 136.911 30.5124C136.941 30.5155 136.972 30.52 137.003 30.5246C137.038 30.5299 137.075 30.5353 137.113 30.5388V31.9774C137.009 31.9576 136.904 31.9444 136.793 31.9312C136.682 31.918 136.577 31.9114 136.473 31.9114C136.224 31.9114 135.989 31.9642 135.766 32.0632C135.544 32.1622 135.355 32.3139 135.191 32.5053C135.028 32.7033 134.897 32.9409 134.799 33.2312C134.701 33.5216 134.655 33.8515 134.655 34.2277V37.448H133.177V30.684H133.184ZM142.456 37.4543H143.908V30.6902H142.43V34.6167C142.43 34.8806 142.404 35.1248 142.345 35.3492C142.286 35.5735 142.194 35.7715 142.064 35.9299C141.939 36.0948 141.769 36.2202 141.56 36.3192C141.351 36.4182 141.096 36.4644 140.782 36.4644C140.377 36.4644 140.056 36.339 139.834 36.0948C139.605 35.8507 139.494 35.4283 139.494 34.8344V30.6836H138.016V34.9796C138.016 35.8705 138.212 36.537 138.605 36.9791C138.997 37.4213 139.638 37.639 140.521 37.639C140.893 37.639 141.259 37.5334 141.619 37.3289C141.979 37.1243 142.247 36.8537 142.43 36.5106H142.456V37.4543ZM146.425 35.2835C146.471 35.7191 146.634 36.0226 146.916 36.2008C147.203 36.3724 147.543 36.4647 147.942 36.4647C148.079 36.4647 148.236 36.4516 148.413 36.4318C148.589 36.412 148.76 36.3658 148.91 36.3064C149.067 36.247 149.191 36.1546 149.296 36.0358C149.394 35.917 149.44 35.7652 149.433 35.5739C149.426 35.3825 149.355 35.2241 149.224 35.1053C149.093 34.98 148.93 34.8876 148.727 34.8084C148.524 34.7358 148.295 34.6698 148.034 34.617C147.82 34.5738 147.605 34.5262 147.388 34.4777L147.388 34.4777L147.387 34.4776L147.387 34.4776L147.387 34.4776L147.387 34.4776L147.387 34.4776L147.387 34.4776L147.387 34.4776L147.387 34.4776L147.243 34.4454C146.968 34.386 146.7 34.3069 146.445 34.2211C146.19 34.1353 145.961 34.0165 145.758 33.8647C145.556 33.7195 145.392 33.5282 145.274 33.2972C145.15 33.0662 145.091 32.7825 145.091 32.4393C145.091 32.0698 145.183 31.7662 145.359 31.5155C145.536 31.2647 145.765 31.0667 146.033 30.9149C146.307 30.7632 146.608 30.6576 146.942 30.5916C147.275 30.5322 147.596 30.4992 147.896 30.4992C148.243 30.4992 148.576 30.5388 148.89 30.6114C149.204 30.684 149.492 30.8028 149.747 30.9743C150.002 31.1393 150.211 31.3571 150.381 31.621C150.551 31.885 150.656 32.2084 150.701 32.5845H149.158C149.086 32.2282 148.93 31.984 148.674 31.8652C148.419 31.7398 148.125 31.6804 147.798 31.6804C147.694 31.6804 147.569 31.687 147.426 31.7068C147.282 31.7266 147.151 31.7596 147.02 31.8058C146.896 31.852 146.791 31.9246 146.7 32.017C146.615 32.1094 146.569 32.2282 146.569 32.3799C146.569 32.5647 146.634 32.7099 146.759 32.8221C146.883 32.9343 147.046 33.0266 147.249 33.1058C147.452 33.1784 147.681 33.2444 147.942 33.2972C148.147 33.3386 148.357 33.3841 148.57 33.4305L148.57 33.4305L148.746 33.4688C149.015 33.5282 149.276 33.6074 149.538 33.6931C149.799 33.7789 150.028 33.8977 150.231 34.0495C150.433 34.2013 150.597 34.386 150.721 34.6104C150.845 34.8348 150.911 35.1185 150.911 35.4485C150.911 35.851 150.819 36.1876 150.636 36.4713C150.453 36.7485 150.218 36.9795 149.93 37.1511C149.642 37.3226 149.315 37.4546 148.962 37.5338C148.609 37.613 148.256 37.6526 147.909 37.6526C147.484 37.6526 147.092 37.6064 146.733 37.5074C146.373 37.4084 146.059 37.2632 145.797 37.0719C145.536 36.8739 145.327 36.6297 145.176 36.3394C145.026 36.049 144.947 35.6993 144.934 35.2967H146.425V35.2835ZM152.422 30.6842H151.317V31.8127H152.435V35.8051C152.442 36.0823 152.474 36.333 152.52 36.5508C152.573 36.7686 152.658 36.9467 152.795 37.0919C152.926 37.2371 153.115 37.3493 153.351 37.4219C153.586 37.4945 153.9 37.534 154.292 37.534C154.456 37.534 154.613 37.5274 154.769 37.5076C154.852 37.4968 154.938 37.488 155.026 37.479L155.026 37.479C155.099 37.4715 155.173 37.4638 155.247 37.4549V36.3C155.142 36.3264 155.038 36.3396 154.933 36.3462C154.828 36.3528 154.724 36.3528 154.619 36.3528C154.449 36.3528 154.325 36.333 154.227 36.2934C154.129 36.2538 154.057 36.1944 154.011 36.1152C153.965 36.0361 153.933 35.9371 153.919 35.8249C153.906 35.7061 153.9 35.5741 153.9 35.4157V31.7995H155.234V30.6842H153.9V28.6517H152.422V30.6842ZM156.279 30.684H157.678V31.6012H157.704C157.914 31.2053 158.201 30.9281 158.574 30.7566C158.947 30.585 159.346 30.4992 159.784 30.4992C160.313 30.4992 160.771 30.5916 161.163 30.783C161.556 30.9677 161.883 31.2251 162.144 31.5551C162.406 31.885 162.595 32.2678 162.726 32.7033C162.857 33.1388 162.922 33.6074 162.922 34.1023C162.922 34.5576 162.863 34.9998 162.746 35.4221C162.628 35.851 162.452 36.2272 162.216 36.5571C161.981 36.8871 161.68 37.1445 161.314 37.3424C160.948 37.5404 160.523 37.6394 160.026 37.6394C159.81 37.6394 159.594 37.6196 159.378 37.58C159.163 37.5404 158.953 37.4744 158.757 37.3886C158.561 37.3028 158.371 37.1906 158.208 37.0521C158.038 36.9135 157.901 36.7551 157.783 36.5769H157.757V39.9556H156.279V30.684ZM161.328 33.1852C161.406 33.4755 161.445 33.7725 161.445 34.0761C161.445 34.373 161.413 34.6634 161.354 34.9471C161.288 35.2309 161.177 35.4817 161.027 35.706C160.877 35.9238 160.687 36.1086 160.452 36.2471C160.216 36.3857 159.935 36.4583 159.595 36.4583C159.294 36.4583 159.026 36.3989 158.797 36.2735C158.568 36.1548 158.372 35.9898 158.209 35.7786C158.039 35.5674 157.921 35.3167 157.836 35.0263C157.751 34.736 157.712 34.4192 157.712 34.0761C157.712 33.3502 157.869 32.7694 158.183 32.3339C158.496 31.8984 158.967 31.6806 159.588 31.6806C159.889 31.6806 160.157 31.7532 160.393 31.8852C160.622 32.0172 160.818 32.1953 160.975 32.4197C161.132 32.6441 161.249 32.8948 161.328 33.1852ZM165.531 30.6836H164.053V37.4543H165.531V30.6836ZM166.851 28.1038H168.329V37.4546H166.851V28.1038ZM171.429 37.3688C171.847 37.547 172.325 37.6394 172.861 37.6394C173.397 37.6394 173.874 37.547 174.293 37.3688C174.711 37.1906 175.071 36.9465 175.359 36.6297C175.646 36.313 175.869 35.9368 176.019 35.5013C176.169 35.0658 176.248 34.584 176.248 34.0627C176.248 33.548 176.169 33.0728 176.019 32.6373C175.869 32.2018 175.646 31.8256 175.359 31.5089C175.064 31.1987 174.711 30.9479 174.293 30.7698C173.874 30.5916 173.397 30.4992 172.861 30.4992C172.325 30.4992 171.847 30.5916 171.429 30.7698C171.01 30.9479 170.651 31.1921 170.363 31.5089C170.075 31.8256 169.853 32.2018 169.703 32.6373C169.552 33.0728 169.474 33.548 169.474 34.0627C169.474 34.584 169.552 35.0658 169.703 35.5013C169.853 35.9368 170.075 36.313 170.363 36.6297C170.657 36.9399 171.01 37.1906 171.429 37.3688ZM172.86 36.4583C173.187 36.4583 173.475 36.3857 173.716 36.2471C173.958 36.1086 174.155 35.9238 174.311 35.6994C174.468 35.4751 174.58 35.2177 174.658 34.9339C174.73 34.6502 174.769 34.3598 174.769 34.0629C174.769 33.7725 174.73 33.4887 174.658 33.1984C174.586 32.908 174.468 32.6573 174.311 32.4329C174.155 32.2085 173.958 32.0304 173.716 31.8918C173.475 31.7532 173.187 31.6806 172.86 31.6806C172.533 31.6806 172.245 31.7532 172.003 31.8918C171.761 32.0304 171.565 32.2151 171.408 32.4329C171.251 32.6573 171.14 32.908 171.062 33.1984C170.99 33.4887 170.951 33.7725 170.951 34.0629C170.951 34.3598 170.99 34.6502 171.062 34.9339C171.134 35.2177 171.251 35.4751 171.408 35.6994C171.565 35.9238 171.761 36.1086 172.003 36.2471C172.245 36.3923 172.533 36.4583 172.86 36.4583ZM177.797 30.6842H176.692V31.8127H177.81V35.8051C177.817 36.0823 177.849 36.333 177.895 36.5508C177.947 36.7686 178.032 36.9467 178.17 37.0919C178.301 37.2371 178.49 37.3493 178.726 37.4219C178.961 37.4945 179.275 37.534 179.667 37.534C179.831 37.534 179.988 37.5274 180.144 37.5076C180.227 37.4968 180.313 37.488 180.4 37.479C180.473 37.4715 180.548 37.4638 180.622 37.4549V36.3C180.517 36.3264 180.413 36.3396 180.308 36.3462C180.203 36.3528 180.099 36.3528 179.994 36.3528C179.824 36.3528 179.7 36.333 179.602 36.2934C179.504 36.2538 179.432 36.1944 179.386 36.1152C179.34 36.0361 179.307 35.9371 179.294 35.8249C179.281 35.7061 179.275 35.5741 179.275 35.4157V31.7995H180.609V30.6842H179.275V28.6517H177.797V30.6842Z" fill="#151515"/>
<path d="M123.723 27.6357H117.06L115.002 20.9925L112.937 27.6357L106.274 27.6289L111.67 31.7388L109.606 38.3752L115.002 34.2721L120.392 38.3752L118.333 31.7388L123.723 27.6357Z" fill="#00B67A"/>
<path d="M118.412 33.4602L117.95 32.0544L114.619 34.4248L118.412 33.4602Z" fill="#005128"/>
<path d="M0.577511 57.9282V52.6715H2.50255C2.87558 52.6715 3.18444 52.7331 3.42913 52.8563C3.67383 52.9778 3.85692 53.1429 3.97841 53.3517C4.0999 53.5587 4.16065 53.7923 4.16065 54.0524C4.16065 54.2714 4.12044 54.4562 4.04001 54.6068C3.95959 54.7557 3.85179 54.8755 3.71661 54.9662C3.58314 55.0551 3.43598 55.1202 3.27513 55.1612V55.2126C3.44967 55.2211 3.61993 55.2776 3.78591 55.382C3.9536 55.4846 4.0922 55.6309 4.20172 55.8209C4.31123 56.0108 4.36599 56.2418 4.36599 56.5139C4.36599 56.7825 4.30267 57.0238 4.17605 57.2377C4.05114 57.4499 3.85778 57.6184 3.59597 57.7434C3.33417 57.8666 2.99964 57.9282 2.59238 57.9282H0.577511ZM1.37063 57.248H2.51538C2.89526 57.248 3.16733 57.1744 3.3316 57.0272C3.49587 56.8801 3.578 56.6961 3.578 56.4754C3.578 56.3094 3.53608 56.1571 3.45223 56.0185C3.36839 55.8799 3.24861 55.7695 3.09289 55.6874C2.93889 55.6053 2.7558 55.5642 2.54362 55.5642H1.37063V57.248ZM1.37063 54.9456H2.43325C2.61121 54.9456 2.7712 54.9114 2.91322 54.843C3.05696 54.7745 3.17075 54.6787 3.2546 54.5555C3.34015 54.4306 3.38293 54.2834 3.38293 54.114C3.38293 53.8967 3.30679 53.7145 3.1545 53.5673C3.0022 53.4201 2.76863 53.3466 2.45378 53.3466H1.37063V54.9456ZM7.02425 57.9282H6.18236L8.07404 52.6715H8.99035L10.882 57.9282H10.0401L8.55401 53.6263H8.51294L7.02425 57.9282ZM7.16542 55.8696H9.8964V56.537H7.16542V55.8696ZM15.7393 54.0524C15.7119 53.8094 15.599 53.6212 15.4005 53.4877C15.202 53.3526 14.9522 53.285 14.651 53.285C14.4354 53.285 14.2489 53.3192 14.0915 53.3876C13.9341 53.4544 13.8117 53.5468 13.7244 53.6648C13.6389 53.7812 13.5961 53.9138 13.5961 54.0627C13.5961 54.1876 13.6252 54.2954 13.6834 54.3861C13.7433 54.4768 13.8211 54.5529 13.917 54.6145C14.0145 54.6744 14.1189 54.7249 14.2301 54.766C14.3413 54.8053 14.4483 54.8378 14.5509 54.8635L15.0643 54.997C15.232 55.038 15.4039 55.0936 15.5802 55.1638C15.7564 55.234 15.9198 55.3264 16.0704 55.441C16.221 55.5557 16.3425 55.6977 16.4349 55.8671C16.529 56.0365 16.5761 56.2393 16.5761 56.4754C16.5761 56.7731 16.4991 57.0375 16.3451 57.2685C16.1928 57.4995 15.9712 57.6817 15.6803 57.8152C15.3911 57.9487 15.0412 58.0154 14.6305 58.0154C14.2369 58.0154 13.8964 57.953 13.6089 57.8281C13.3215 57.7031 13.0965 57.526 12.9339 57.2967C12.7713 57.0657 12.6815 56.792 12.6644 56.4754H13.4601C13.4755 56.6653 13.5371 56.8236 13.6449 56.9502C13.7544 57.0751 13.8939 57.1684 14.0633 57.23C14.2344 57.2899 14.4217 57.3198 14.6254 57.3198C14.8495 57.3198 15.0489 57.2848 15.2234 57.2146C15.3997 57.1427 15.5383 57.0435 15.6392 56.9169C15.7402 56.7885 15.7907 56.6388 15.7907 56.4677C15.7907 56.312 15.7462 56.1845 15.6572 56.0853C15.5699 55.986 15.451 55.9039 15.3004 55.8388C15.1515 55.7738 14.983 55.7165 14.7948 55.6669L14.1736 55.4975C13.7527 55.3828 13.419 55.2143 13.1726 54.9918C12.9279 54.7694 12.8056 54.4751 12.8056 54.1089C12.8056 53.806 12.8877 53.5416 13.052 53.3158C13.2162 53.0899 13.4387 52.9145 13.7193 52.7896C13.9999 52.663 14.3165 52.5996 14.669 52.5996C15.0249 52.5996 15.3389 52.6621 15.611 52.787C15.8848 52.9119 16.1004 53.0839 16.2578 53.3029C16.4152 53.5202 16.4974 53.7701 16.5042 54.0524H15.7393ZM18.7973 57.9282V52.6715H22.093V53.3543H19.5905V54.9559H21.921V55.6361H19.5905V57.2454H22.1238V57.9282H18.7973ZM26.1277 57.9282H24.4259V52.6715H26.1816C26.6966 52.6715 27.139 52.7768 27.5086 52.9872C27.8782 53.196 28.1614 53.4963 28.3582 53.8881C28.5566 54.2783 28.6559 54.7463 28.6559 55.2921C28.6559 55.8397 28.5558 56.3103 28.3556 56.7038C28.1571 57.0974 27.8696 57.4003 27.4932 57.6124C27.1167 57.8229 26.6616 57.9282 26.1277 57.9282ZM25.2191 57.2351H26.084C26.4844 57.2351 26.8173 57.1598 27.0825 57.0093C27.3477 56.857 27.5462 56.6371 27.678 56.3496C27.8097 56.0604 27.8756 55.7079 27.8756 55.2921C27.8756 54.8797 27.8097 54.5298 27.678 54.2423C27.5479 53.9549 27.3537 53.7367 27.0953 53.5878C26.8369 53.439 26.5161 53.3645 26.1328 53.3645H25.2191V57.2351ZM38.6682 55.2998C38.6682 55.8611 38.5656 56.3436 38.3602 56.7475C38.1549 57.1496 37.8734 57.4593 37.5158 57.6766C37.1599 57.8922 36.7552 58 36.3017 58C35.8465 58 35.4402 57.8922 35.0825 57.6766C34.7266 57.4593 34.446 57.1487 34.2406 56.7449C34.0353 56.3411 33.9326 55.8594 33.9326 55.2998C33.9326 54.7386 34.0353 54.2569 34.2406 53.8548C34.446 53.4509 34.7266 53.1412 35.0825 52.9256C35.4402 52.7083 35.8465 52.5996 36.3017 52.5996C36.7552 52.5996 37.1599 52.7083 37.5158 52.9256C37.8734 53.1412 38.1549 53.4509 38.3602 53.8548C38.5656 54.2569 38.6682 54.7386 38.6682 55.2998ZM37.8828 55.2998C37.8828 54.872 37.8135 54.5119 37.6749 54.2192C37.538 53.9249 37.3498 53.7025 37.1102 53.5519C36.8724 53.3996 36.6029 53.3235 36.3017 53.3235C35.9988 53.3235 35.7285 53.3996 35.4906 53.5519C35.2528 53.7025 35.0646 53.9249 34.926 54.2192C34.7891 54.5119 34.7206 54.872 34.7206 55.2998C34.7206 55.7276 34.7891 56.0887 34.926 56.383C35.0646 56.6756 35.2528 56.898 35.4906 57.0503C35.7285 57.2009 35.9988 57.2762 36.3017 57.2762C36.6029 57.2762 36.8724 57.2009 37.1102 57.0503C37.3498 56.898 37.538 56.6756 37.6749 56.383C37.8135 56.0887 37.8828 55.7276 37.8828 55.2998ZM45.1734 52.6715V57.9282H44.4444L41.7725 54.0729H41.7237V57.9282H40.9306V52.6715H41.6647L44.3392 56.5319H44.3879V52.6715H45.1734ZM52.7127 52.6715V57.9282H51.917V53.4672H51.8862L50.6285 54.2885V53.5288L51.9401 52.6715H52.7127ZM57.1432 58C56.8215 58 56.5324 57.9384 56.2757 57.8152C56.0207 57.6903 55.8171 57.5192 55.6648 57.3019C55.5125 57.0846 55.4312 56.8364 55.421 56.5575H56.191C56.2098 56.7834 56.3099 56.9691 56.4913 57.1145C56.6727 57.26 56.89 57.3327 57.1432 57.3327C57.3451 57.3327 57.524 57.2865 57.6797 57.1941C57.8371 57.1 57.9603 56.9708 58.0493 56.8065C58.14 56.6422 58.1853 56.4549 58.1853 56.2444C58.1853 56.0305 58.1391 55.8397 58.0467 55.672C57.9543 55.5043 57.8268 55.3726 57.6643 55.2767C57.5034 55.1809 57.3186 55.1321 57.1099 55.1304C56.9507 55.1304 56.7907 55.1578 56.6299 55.2126C56.469 55.2673 56.339 55.3392 56.2397 55.4282L55.5134 55.3204L55.8085 52.6715H58.6987V53.3517H56.4682L56.3013 54.8224H56.3322C56.4348 54.7232 56.5709 54.6402 56.7403 54.5735C56.9114 54.5067 57.0945 54.4734 57.2895 54.4734C57.6095 54.4734 57.8944 54.5495 58.1443 54.7018C58.3958 54.8541 58.5934 55.062 58.7372 55.3255C58.8826 55.5873 58.9545 55.8885 58.9528 56.229C58.9545 56.5695 58.8775 56.8732 58.7218 57.1402C58.5678 57.4071 58.3539 57.6176 58.0801 57.7716C57.808 57.9239 57.4957 58 57.1432 58ZM61.9819 57.2095L61.9434 57.4892C61.9178 57.6946 61.8741 57.9085 61.8125 58.1309C61.7526 58.3551 61.6902 58.563 61.6251 58.7546C61.5618 58.9463 61.5096 59.0986 61.4686 59.2115H60.9244C60.9467 59.1054 60.9775 58.9617 61.0168 58.7803C61.0562 58.6006 61.0947 58.3996 61.1323 58.1771C61.17 57.9547 61.1982 57.728 61.217 57.4969L61.2427 57.2095H61.9819ZM65.9685 58.0154C65.5629 58.0137 65.2164 57.9068 64.9289 57.6946C64.6415 57.4824 64.4216 57.1735 64.2693 56.768C64.117 56.3625 64.0409 55.8739 64.0409 55.3024C64.0409 54.7326 64.117 54.2458 64.2693 53.8419C64.4233 53.4381 64.644 53.1301 64.9315 52.9179C65.2207 52.7057 65.5663 52.5996 65.9685 52.5996C66.3706 52.5996 66.7154 52.7066 67.0028 52.9205C67.2903 53.1327 67.5102 53.4407 67.6625 53.8445C67.8165 54.2466 67.8935 54.7326 67.8935 55.3024C67.8935 55.8756 67.8174 56.365 67.6651 56.7706C67.5128 57.1744 67.2929 57.4833 67.0054 57.6971C66.7179 57.9093 66.3723 58.0154 65.9685 58.0154ZM65.9685 57.3301C66.3244 57.3301 66.6024 57.1564 66.8026 56.8091C67.0046 56.4617 67.1055 55.9595 67.1055 55.3024C67.1055 54.8661 67.0593 54.4973 66.9669 54.1961C66.8762 53.8933 66.7453 53.664 66.5742 53.5083C66.4048 53.3508 66.2029 53.2721 65.9685 53.2721C65.6143 53.2721 65.3362 53.4467 65.1343 53.7957C64.9324 54.1448 64.8305 54.647 64.8288 55.3024C64.8288 55.7405 64.8742 56.1109 64.9649 56.4138C65.0573 56.715 65.1882 56.9434 65.3576 57.0991C65.527 57.2531 65.7306 57.3301 65.9685 57.3301ZM71.9076 58.0154C71.5021 58.0137 71.1556 57.9068 70.8681 57.6946C70.5806 57.4824 70.3608 57.1735 70.2085 56.768C70.0562 56.3625 69.98 55.8739 69.98 55.3024C69.98 54.7326 70.0562 54.2458 70.2085 53.8419C70.3625 53.4381 70.5832 53.1301 70.8707 52.9179C71.1599 52.7057 71.5055 52.5996 71.9076 52.5996C72.3097 52.5996 72.6545 52.7066 72.942 52.9205C73.2295 53.1327 73.4494 53.4407 73.6017 53.8445C73.7557 54.2466 73.8327 54.7326 73.8327 55.3024C73.8327 55.8756 73.7565 56.365 73.6042 56.7706C73.4519 57.1744 73.2321 57.4833 72.9446 57.6971C72.6571 57.9093 72.3115 58.0154 71.9076 58.0154ZM71.9076 57.3301C72.2635 57.3301 72.5416 57.1564 72.7418 56.8091C72.9437 56.4617 73.0447 55.9595 73.0447 55.3024C73.0447 54.8661 72.9985 54.4973 72.9061 54.1961C72.8154 53.8933 72.6845 53.664 72.5134 53.5083C72.344 53.3508 72.1421 53.2721 71.9076 53.2721C71.5534 53.2721 71.2754 53.4467 71.0734 53.7957C70.8715 54.1448 70.7697 54.647 70.768 55.3024C70.768 55.7405 70.8134 56.1109 70.904 56.4138C70.9964 56.715 71.1273 56.9434 71.2967 57.0991C71.4662 57.2531 71.6698 57.3301 71.9076 57.3301ZM77.8468 58.0154C77.4413 58.0137 77.0948 57.9068 76.8073 57.6946C76.5198 57.4824 76.2999 57.1735 76.1476 56.768C75.9953 56.3625 75.9192 55.8739 75.9192 55.3024C75.9192 54.7326 75.9953 54.2458 76.1476 53.8419C76.3016 53.4381 76.5224 53.1301 76.8098 52.9179C77.099 52.7057 77.4447 52.5996 77.8468 52.5996C78.2489 52.5996 78.5937 52.7066 78.8812 52.9205C79.1687 53.1327 79.3885 53.4407 79.5408 53.8445C79.6948 54.2466 79.7718 54.7326 79.7718 55.3024C79.7718 55.8756 79.6957 56.365 79.5434 56.7706C79.3911 57.1744 79.1712 57.4833 78.8838 57.6971C78.5963 57.9093 78.2506 58.0154 77.8468 58.0154ZM77.8468 57.3301C78.2027 57.3301 78.4808 57.1564 78.681 56.8091C78.8829 56.4617 78.9839 55.9595 78.9839 55.3024C78.9839 54.8661 78.9377 54.4973 78.8453 54.1961C78.7546 53.8933 78.6237 53.664 78.4525 53.5083C78.2831 53.3508 78.0812 53.2721 77.8468 53.2721C77.4926 53.2721 77.2145 53.4467 77.0126 53.7957C76.8107 54.1448 76.7089 54.647 76.7072 55.3024C76.7072 55.7405 76.7525 56.1109 76.8432 56.4138C76.9356 56.715 77.0665 56.9434 77.2359 57.0991C77.4053 57.2531 77.6089 57.3301 77.8468 57.3301ZM85.2141 57.9282V52.6715H87.0878C87.4951 52.6715 87.833 52.7417 88.1017 52.882C88.372 53.0223 88.574 53.2165 88.7074 53.4646C88.8409 53.711 88.9076 53.9959 88.9076 54.3193C88.9076 54.641 88.84 54.9242 88.7049 55.1689C88.5714 55.4119 88.3695 55.601 88.0991 55.7362C87.8305 55.8714 87.4925 55.9389 87.0853 55.9389H85.6659V55.2562H87.0134C87.2701 55.2562 87.4788 55.2194 87.6397 55.1458C87.8022 55.0723 87.9212 54.9653 87.9964 54.825C88.0717 54.6847 88.1094 54.5161 88.1094 54.3193C88.1094 54.1209 88.0709 53.9489 87.9939 53.8034C87.9186 53.658 87.7997 53.5468 87.6371 53.4698C87.4763 53.3911 87.2649 53.3517 87.0031 53.3517H86.0072V57.9282H85.2141ZM87.8091 55.5565L89.1078 57.9282H88.2043L86.9313 55.5565H87.8091ZM91.1462 57.9282V52.6715H94.4419V53.3543H91.9394V54.9559H94.2699V55.6361H91.9394V57.2454H94.4727V57.9282H91.1462ZM97.2343 52.6715L98.6973 56.9528H98.7563L100.219 52.6715H101.077L99.185 57.9282H98.2687L96.377 52.6715H97.2343ZM103.902 52.6715V57.9282H103.109V52.6715H103.902ZM106.331 57.9282V52.6715H109.627V53.3543H107.124V54.9559H109.455V55.6361H107.124V57.2454H109.657V57.9282H106.331ZM112.989 57.9282L111.531 52.6715H112.365L113.389 56.7423H113.438L114.503 52.6715H115.33L116.395 56.7449H116.444L117.465 52.6715H118.302L116.841 57.9282H116.043L114.937 53.9908H114.896L113.79 57.9282H112.989ZM123.151 54.0524C123.124 53.8094 123.011 53.6212 122.813 53.4877C122.614 53.3526 122.364 53.285 122.063 53.285C121.848 53.285 121.661 53.3192 121.504 53.3876C121.346 53.4544 121.224 53.5468 121.137 53.6648C121.051 53.7812 121.008 53.9138 121.008 54.0627C121.008 54.1876 121.037 54.2954 121.096 54.3861C121.155 54.4768 121.233 54.5529 121.329 54.6145C121.427 54.6744 121.531 54.7249 121.642 54.766C121.753 54.8053 121.86 54.8378 121.963 54.8635L122.476 54.997C122.644 55.038 122.816 55.0936 122.992 55.1638C123.169 55.234 123.332 55.3264 123.483 55.441C123.633 55.5557 123.755 55.6977 123.847 55.8671C123.941 56.0365 123.988 56.2393 123.988 56.4754C123.988 56.7731 123.911 57.0375 123.757 57.2685C123.605 57.4995 123.383 57.6817 123.092 57.8152C122.803 57.9487 122.453 58.0154 122.043 58.0154C121.649 58.0154 121.309 57.953 121.021 57.8281C120.734 57.7031 120.509 57.526 120.346 57.2967C120.183 57.0657 120.094 56.792 120.077 56.4754H120.872C120.888 56.6653 120.949 56.8236 121.057 56.9502C121.167 57.0751 121.306 57.1684 121.475 57.23C121.647 57.2899 121.834 57.3198 122.038 57.3198C122.262 57.3198 122.461 57.2848 122.636 57.2146C122.812 57.1427 122.95 57.0435 123.051 56.9169C123.152 56.7885 123.203 56.6388 123.203 56.4677C123.203 56.312 123.158 56.1845 123.069 56.0853C122.982 55.986 122.863 55.9039 122.713 55.8388C122.564 55.7738 122.395 55.7165 122.207 55.6669L121.586 55.4975C121.165 55.3828 120.831 55.2143 120.585 54.9918C120.34 54.7694 120.218 54.4751 120.218 54.1089C120.218 53.806 120.3 53.5416 120.464 53.3158C120.628 53.0899 120.851 52.9145 121.131 52.7896C121.412 52.663 121.729 52.5996 122.081 52.5996C122.437 52.5996 122.751 52.6621 123.023 52.787C123.297 52.9119 123.513 53.0839 123.67 53.3029C123.827 53.5202 123.91 53.7701 123.916 54.0524H123.151Z" fill="#151515"/>
<path d="M0.814038 10V2.59044H5.45948V3.55282H1.93198V5.81042H5.21708V6.76917H1.93198V9.03763H5.5029V10H0.814038ZM7.93205 4.44283L9.15853 6.60636L10.3959 4.44283H11.5789L9.84594 7.22142L11.5934 10H10.4103L9.15853 7.9233L7.91034 10H6.72365L8.45303 7.22142L6.74536 4.44283H7.93205ZM15.0238 10.1122C14.486 10.1122 14.0229 9.99035 13.6345 9.74674C13.2486 9.50072 12.952 9.16184 12.7445 8.7301C12.5371 8.29836 12.4334 7.80391 12.4334 7.24674C12.4334 6.68234 12.5395 6.18427 12.7518 5.75253C12.964 5.31838 13.2631 4.97949 13.649 4.73589C14.0349 4.49228 14.4896 4.37047 15.013 4.37047C15.4351 4.37047 15.8113 4.44886 16.1418 4.60564C16.4722 4.76001 16.7387 4.97708 16.9413 5.25687C17.1464 5.53666 17.2682 5.86348 17.3068 6.23733H16.2539C16.196 5.97684 16.0634 5.75253 15.856 5.5644C15.6509 5.37626 15.376 5.2822 15.0311 5.2822C14.7296 5.2822 14.4655 5.36179 14.2387 5.52098C14.0144 5.67776 13.8396 5.90207 13.7141 6.19392C13.5887 6.48335 13.526 6.82585 13.526 7.22142C13.526 7.62663 13.5875 7.97636 13.7105 8.27062C13.8335 8.56488 14.0072 8.79281 14.2315 8.95441C14.4582 9.11601 14.7247 9.19682 15.0311 9.19682C15.2361 9.19682 15.4218 9.15943 15.5882 9.08466C15.7571 9.00748 15.8982 8.89773 16.0115 8.75543C16.1273 8.61312 16.2081 8.44187 16.2539 8.24168H17.3068C17.2682 8.60106 17.1512 8.92185 16.9558 9.20405C16.7604 9.48625 16.4987 9.70815 16.1707 9.86975C15.8451 10.0314 15.4628 10.1122 15.0238 10.1122ZM21.0709 10.1122C20.5234 10.1122 20.0519 9.99518 19.6563 9.76122C19.2632 9.52484 18.9593 9.1932 18.7446 8.76628C18.5323 8.33695 18.4262 7.83406 18.4262 7.2576C18.4262 6.68837 18.5323 6.18668 18.7446 5.75253C18.9593 5.31838 19.2583 4.97949 19.6418 4.73589C20.0278 4.49228 20.4788 4.37047 20.995 4.37047C21.3085 4.37047 21.6124 4.42233 21.9067 4.52604C22.2009 4.62976 22.465 4.79257 22.699 5.01447C22.933 5.23637 23.1175 5.5246 23.2526 5.87916C23.3876 6.2313 23.4552 6.65943 23.4552 7.16353V7.54703H19.0376V6.73661H22.3951C22.3951 6.452 22.3372 6.19995 22.2214 5.98046C22.1057 5.75856 21.9429 5.58369 21.733 5.45586C21.5256 5.32802 21.282 5.26411 21.0022 5.26411C20.6983 5.26411 20.433 5.33888 20.2062 5.48842C19.9819 5.63555 19.8083 5.82851 19.6853 6.06729C19.5647 6.30366 19.5044 6.56054 19.5044 6.83791V7.47105C19.5044 7.8425 19.5695 8.15846 19.6997 8.41896C19.8324 8.67945 20.0169 8.87844 20.2533 9.01592C20.4896 9.15099 20.7658 9.21852 21.0818 9.21852C21.2868 9.21852 21.4737 9.18958 21.6426 9.13169C21.8114 9.07139 21.9573 8.98215 22.0803 8.86396C22.2033 8.74578 22.2974 8.59985 22.3625 8.42619L23.3864 8.61071C23.3044 8.9122 23.1573 9.17631 22.945 9.40304C22.7352 9.62735 22.4711 9.80222 22.1527 9.92764C21.8367 10.0507 21.4761 10.1122 21.0709 10.1122ZM25.9494 2.59044V10H24.8677V2.59044H25.9494ZM28.6988 2.59044V10H27.617V2.59044H28.6988ZM32.7614 10.1122C32.2139 10.1122 31.7424 9.99518 31.3468 9.76122C30.9537 9.52484 30.6497 9.1932 30.4351 8.76628C30.2228 8.33695 30.1167 7.83406 30.1167 7.2576C30.1167 6.68837 30.2228 6.18668 30.4351 5.75253C30.6497 5.31838 30.9488 4.97949 31.3323 4.73589C31.7182 4.49228 32.1693 4.37047 32.6854 4.37047C32.999 4.37047 33.3029 4.42233 33.5972 4.52604C33.8914 4.62976 34.1555 4.79257 34.3895 5.01447C34.6235 5.23637 34.808 5.5246 34.943 5.87916C35.0781 6.2313 35.1457 6.65943 35.1457 7.16353V7.54703H30.7281V6.73661H34.0856C34.0856 6.452 34.0277 6.19995 33.9119 5.98046C33.7962 5.75856 33.6333 5.58369 33.4235 5.45586C33.2161 5.32802 32.9725 5.26411 32.6927 5.26411C32.3888 5.26411 32.1235 5.33888 31.8967 5.48842C31.6724 5.63555 31.4988 5.82851 31.3757 6.06729C31.2552 6.30366 31.1949 6.56054 31.1949 6.83791V7.47105C31.1949 7.8425 31.26 8.15846 31.3902 8.41896C31.5229 8.67945 31.7074 8.87844 31.9438 9.01592C32.1801 9.15099 32.4563 9.21852 32.7723 9.21852C32.9773 9.21852 33.1642 9.18958 33.3331 9.13169C33.5019 9.07139 33.6478 8.98215 33.7708 8.86396C33.8938 8.74578 33.9879 8.59985 34.053 8.42619L35.0769 8.61071C34.9949 8.9122 34.8478 9.17631 34.6355 9.40304C34.4257 9.62735 34.1616 9.80222 33.8432 9.92764C33.5272 10.0507 33.1666 10.1122 32.7614 10.1122ZM37.6399 6.70043V10H36.5582V4.44283H37.5965V5.34732H37.6652C37.7931 5.05306 37.9933 4.81669 38.2658 4.6382C38.5408 4.45972 38.8869 4.37047 39.3042 4.37047C39.6829 4.37047 40.0145 4.45007 40.2991 4.60926C40.5837 4.76604 40.8044 5 40.9612 5.31114C41.118 5.62228 41.1964 6.00699 41.1964 6.46526V10H40.1146V6.59551C40.1146 6.19271 40.0097 5.87795 39.7998 5.65123C39.59 5.42209 39.3018 5.30752 38.9351 5.30752C38.6843 5.30752 38.4612 5.36179 38.2658 5.47033C38.0729 5.57887 37.9197 5.73806 37.8063 5.9479C37.6954 6.15533 37.6399 6.40617 37.6399 6.70043ZM45.4535 4.44283V5.31114H42.418V4.44283H45.4535ZM43.2321 3.11143H44.3138V8.36831C44.3138 8.57815 44.3452 8.73613 44.4079 8.84226C44.4706 8.94597 44.5514 9.01712 44.6503 9.05572C44.7516 9.0919 44.8613 9.10998 44.9795 9.10998C45.0664 9.10998 45.1423 9.10395 45.2075 9.0919C45.2726 9.07984 45.3232 9.07019 45.3594 9.06295L45.5548 9.95658C45.4921 9.9807 45.4028 10.0048 45.2871 10.0289C45.1713 10.0555 45.0266 10.0699 44.8529 10.0724C44.5683 10.0772 44.303 10.0265 44.057 9.92041C43.8109 9.81428 43.6119 9.65027 43.46 9.42836C43.308 9.20646 43.2321 8.92788 43.2321 8.59262V3.11143Z" fill="#151515"/>
<defs>
<clipPath id="clip0_2119_869">
<rect width="97.5271" height="18.3683" fill="white" transform="translate(0 20.9925)"/>
</clipPath>
</defs>
</svg>
